<?xml version="1.0" encoding="UTF-8" standalone="no"?>
<!-- Created with Inkscape (http://www.inkscape.org/) -->

<svg
   xmlns:dc="http://purl.org/dc/elements/1.1/"
   xmlns:cc="http://creativecommons.org/ns#"
   xmlns:rdf="http://www.w3.org/1999/02/22-rdf-syntax-ns#"
   xmlns:svg="http://www.w3.org/2000/svg"
   xmlns="http://www.w3.org/2000/svg"
   xmlns:sodipodi="http://sodipodi.sourceforge.net/DTD/sodipodi-0.dtd"
   xmlns:inkscape="http://www.inkscape.org/namespaces/inkscape"
   width="166.4762mm"
   height="185.9424mm"
   viewBox="0 0 166.4762 185.9424"
   version="1.1"
   id="svg8"
   sodipodi:docname="stacy.svg"
   inkscape:version="0.92.4 (5da689c313, 2019-01-14)">
  <defs
     id="defs2">
    <inkscape:path-effect
       effect="bspline"
       id="path-effect10929"
       is_visible="true"
       weight="33.333333"
       steps="2"
       helper_size="0"
       apply_no_weight="true"
       apply_with_weight="true"
       only_selected="false" />
    <inkscape:path-effect
       effect="bspline"
       id="path-effect10915"
       is_visible="true"
       weight="33.333333"
       steps="2"
       helper_size="0"
       apply_no_weight="true"
       apply_with_weight="true"
       only_selected="false" />
    <inkscape:path-effect
       effect="bspline"
       id="path-effect10902"
       is_visible="true"
       weight="33.333333"
       steps="2"
       helper_size="0"
       apply_no_weight="true"
       apply_with_weight="true"
       only_selected="false" />
    <inkscape:path-effect
       effect="bspline"
       id="path-effect10897"
       is_visible="true"
       weight="33.333333"
       steps="2"
       helper_size="0"
       apply_no_weight="true"
       apply_with_weight="true"
       only_selected="false" />
    <inkscape:path-effect
       effect="bspline"
       id="path-effect10888"
       is_visible="true"
       weight="33.333333"
       steps="2"
       helper_size="0"
       apply_no_weight="true"
       apply_with_weight="true"
       only_selected="false" />
    <inkscape:path-effect
       effect="bspline"
       id="path-effect10883"
       is_visible="true"
       weight="33.333333"
       steps="2"
       helper_size="0"
       apply_no_weight="true"
       apply_with_weight="true"
       only_selected="false" />
    <inkscape:path-effect
       effect="bspline"
       id="path-effect10839"
       is_visible="true"
       weight="33.333333"
       steps="2"
       helper_size="0"
       apply_no_weight="true"
       apply_with_weight="true"
       only_selected="false" />
    <inkscape:path-effect
       effect="bspline"
       id="path-effect10834"
       is_visible="true"
       weight="33.333333"
       steps="2"
       helper_size="0"
       apply_no_weight="true"
       apply_with_weight="true"
       only_selected="false" />
    <inkscape:path-effect
       effect="bspline"
       id="path-effect10829"
       is_visible="true"
       weight="33.333333"
       steps="2"
       helper_size="0"
       apply_no_weight="true"
       apply_with_weight="true"
       only_selected="false" />
    <inkscape:path-effect
       effect="bspline"
       id="path-effect10776"
       is_visible="true"
       weight="33.333333"
       steps="2"
       helper_size="0"
       apply_no_weight="true"
       apply_with_weight="true"
       only_selected="false" />
    <inkscape:path-effect
       effect="bspline"
       id="path-effect10767"
       is_visible="true"
       weight="33.333333"
       steps="2"
       helper_size="0"
       apply_no_weight="true"
       apply_with_weight="true"
       only_selected="false" />
  </defs>
  <sodipodi:namedview
     id="base"
     pagecolor="#ffffff"
     bordercolor="#666666"
     borderopacity="1.0"
     inkscape:pageopacity="0.0"
     inkscape:pageshadow="2"
     inkscape:zoom="0.25"
     inkscape:cx="-326.38769"
     inkscape:cy="-2012.3592"
     inkscape:document-units="mm"
     inkscape:current-layer="layer1"
     showgrid="false"
     showguides="false"
     inkscape:window-width="1536"
     inkscape:window-height="841"
     inkscape:window-x="200"
     inkscape:window-y="637"
     inkscape:window-maximized="0"
     inkscape:snap-global="false" />
  <metadata
     id="metadata5">
    <rdf:RDF>
      <cc:Work
         rdf:about="">
        <dc:format>image/svg+xml</dc:format>
        <dc:type
           rdf:resource="http://purl.org/dc/dcmitype/StillImage" />
      </cc:Work>
    </rdf:RDF>
  </metadata>
  <g
     inkscape:label="Layer 1"
     inkscape:groupmode="layer"
     id="layer1"
     transform="translate(1903.8655,-931.57961)">
    <text
       xml:space="preserve"
       style="font-style:normal;font-variant:normal;font-weight:normal;font-stretch:normal;font-size:50.79999924px;line-height:1.25;font-family:Wingdings;-inkscape-font-specification:Wingdings;letter-spacing:0px;word-spacing:0px;fill:#000000;fill-opacity:1;stroke:none;stroke-width:0.26458332"
       x="-292.55359"
       y="848.84521"
       id="text4522"><tspan
         sodipodi:role="line"
         x="-292.55359"
         y="895.3219"
         style="font-style:normal;font-variant:normal;font-weight:normal;font-stretch:normal;font-family:Wingdings;-inkscape-font-specification:Wingdings;stroke-width:0.26458332"
         id="tspan4526" /></text>
    <text
       xml:space="preserve"
       style="font-style:normal;font-variant:normal;font-weight:normal;font-stretch:normal;font-size:50.79999924px;line-height:1.25;font-family:'Wingdings 2';-inkscape-font-specification:'Wingdings 2, ';letter-spacing:0px;word-spacing:0px;fill:#000000;fill-opacity:1;stroke:none;stroke-width:0.26458332"
       x="-259.29166"
       y="851.86908"
       id="text4535"><tspan
         sodipodi:role="line"
         id="tspan4533"
         x="-259.29166"
         y="898.34576"
         style="font-style:normal;font-variant:normal;font-weight:normal;font-stretch:normal;font-family:'Wingdings 2';-inkscape-font-specification:'Wingdings 2, ';stroke-width:0.26458332" /></text>
    <text
       xml:space="preserve"
       style="font-style:normal;font-variant:normal;font-weight:normal;font-stretch:normal;font-size:50.79999924px;line-height:1.25;font-family:'Wingdings 3';-inkscape-font-specification:'Wingdings 3, ';letter-spacing:0px;word-spacing:0px;fill:#000000;fill-opacity:1;stroke:none;stroke-width:0.26458332"
       x="-400.36975"
       y="861.25946"
       id="text4547"><tspan
         sodipodi:role="line"
         x="-400.36975"
         y="907.73615"
         style="stroke-width:0.26458332"
         id="tspan4549" /></text>
    <text
       xml:space="preserve"
       style="font-style:normal;font-variant:normal;font-weight:normal;font-stretch:normal;font-size:50.79999924px;line-height:1.25;font-family:'Wingdings 2';-inkscape-font-specification:'Wingdings 2, ';letter-spacing:0px;word-spacing:0px;fill:#000000;fill-opacity:1;stroke:none;stroke-width:0.26458332"
       x="-368.19046"
       y="841.80219"
       id="text4555"><tspan
         sodipodi:role="line"
         id="tspan4553"
         x="-368.19046"
         y="888.27887"
         style="font-style:normal;font-variant:normal;font-weight:normal;font-stretch:normal;font-family:'Wingdings 2';-inkscape-font-specification:'Wingdings 2, ';stroke-width:0.26458332" /></text>
    <path
       style="opacity:1;fill:#000000;fill-opacity:1;stroke:none;stroke-width:2.82842731;stroke-linecap:round;stroke-linejoin:miter;stroke-miterlimit:4;stroke-dasharray:none;stroke-dashoffset:0;stroke-opacity:1;paint-order:markers fill stroke"
       d="m -2009.7633,1119.488 c 0.9878,-0.9878 1.796,-4.9874 1.796,-8.8879 0,-9.134 -4.3169,-13.9425 -19.1028,-21.2779 -15.5923,-7.7354 -24.8751,-17.9161 -29.4395,-32.287 -2.8217,-8.8842 -2.1225,-18.0702 1.3755,-18.0702 1.1489,0 2.5051,0.6735 3.0139,1.4967 0.5087,0.8232 2.5782,1.4967 4.5987,1.4967 2.0206,0 5.0527,0.8419 6.7381,1.8709 2.5701,1.5693 3.3717,1.457 4.9709,-0.6962 1.4513,-1.9541 2.3231,-2.1507 3.6506,-0.8232 1.3275,1.3275 1.744,1.1363 1.744,-0.8005 0,-1.3994 0.5051,-2.388 1.1225,-2.1969 1.9772,0.6119 7.6209,-5.21 6.8919,-7.1096 -0.3866,-1.0075 0.2665,-2.2038 1.4513,-2.6585 1.1849,-0.4547 2.9575,-4.1746 3.9391,-8.2666 1.6041,-6.6867 1.4674,-8.062 -1.3503,-13.5852 -1.7243,-3.3799 -3.6266,-6.1968 -4.2272,-6.2598 -7.0831,-0.7427 -8.1924,-1.60204 -7.9383,-6.14935 0.8081,-14.46411 -0.02,-28.16048 -1.7024,-28.16048 -0.649,0 -1.1801,-1.70492 -1.1801,-3.78875 0,-2.08381 -1.0064,-4.17494 -2.2364,-4.64696 -1.2301,-0.47201 -1.9266,-1.35966 -1.5478,-1.97254 0.3788,-0.61291 -0.8037,-2.51619 -2.6278,-4.22953 -5.1958,-4.88034 -6.5861,-6.98457 -5.925,-8.96779 0.3745,-1.12355 -0.8285,-1.83848 -3.0935,-1.83848 -2.0385,0 -4.0941,-1.01028 -4.5679,-2.24507 -0.4738,-1.23478 -1.8929,-2.24507 -3.1536,-2.24507 -1.2606,0 -2.292,-1.02309 -2.292,-2.27356 0,-1.64079 -0.9815,-2.02724 -3.5266,-1.38846 -2.2506,0.56484 -4.4168,-0.005 -5.9868,-1.57511 -1.8067,-1.80666 -2.4724,-1.93482 -2.5058,-0.48242 -0.033,1.42611 -0.4183,1.34139 -1.3821,-0.30371 -0.9154,-1.56269 -3.6126,-2.25931 -8.5605,-2.21099 -3.9732,0.0388 -7.5608,-0.34177 -7.9724,-0.84569 -0.7979,-0.97687 -20.8595,0.68035 -28.4694,2.35177 -2.5068,0.55058 -6.7061,2.96318 -9.3317,5.36134 -2.6256,2.39815 -6.1392,4.37057 -7.8079,4.38319 -2.1411,0.0161 -2.4685,0.38174 -1.1125,1.24219 2.2853,1.45002 1.1585,5.11977 -3.5178,11.45691 -1.8224,2.46957 -5.1268,8.19449 -7.3431,12.72204 -2.2164,4.52752 -4.6477,9.40141 -5.403,10.83082 -1.8345,3.47216 -1.7522,12.70556 0.1236,13.86488 3.9771,2.45798 -0.4869,14.54222 -8.6752,23.48382 -4.1,4.4773 -3.6053,8.504 1.1992,9.7604 3.3532,0.8769 3.8672,3.4419 1.2201,6.089 -1.3566,1.3566 -1.2699,2.6967 0.3742,5.7827 1.6689,3.1327 1.7281,4.1552 0.2691,4.6451 -2.9155,0.9789 -2.1993,4.5629 1.1225,5.6172 2.183,0.6929 2.9934,2.2646 2.9934,5.8055 0,2.8599 1.2887,6.2386 3.1355,8.221 2.8082,3.0142 4.0191,3.2571 11.5995,2.3264 4.6552,-0.5716 11.6822,-1.8654 15.6156,-2.8751 7.0074,-1.7988 7.2243,-1.7494 10.7605,2.4531 3.968,4.7157 6.1299,14.9898 4.6102,21.9092 -1.1001,5.0084 -5.8319,9.9353 -11.0706,11.5271 -4.1738,1.2682 -13.6755,10.4631 -17.4965,16.9315 -2.2562,3.8195 -2.387,4.9958 -0.7719,6.9419 1.7073,2.0571 9.4712,2.3432 63.5756,2.3432 45.9395,0 62.0881,-0.4572 63.4269,-1.796 z"
       id="path4574"
       inkscape:connector-curvature="0"
       inkscape:export-xdpi="42.18"
       inkscape:export-ydpi="42.18" />
    <path
       style="opacity:1;fill:#000000;fill-opacity:1;stroke:none;stroke-width:2.82842731;stroke-linecap:round;stroke-linejoin:miter;stroke-miterlimit:4;stroke-dasharray:none;stroke-dashoffset:0;stroke-opacity:1;paint-order:markers fill stroke"
       d="m -1612.5998,1119.4346 c -0.882,-2.2984 4.7932,-15.0201 11.064,-24.8013 1.9664,-3.0672 6.3753,-6.8311 10.2946,-8.7884 l 6.8552,-3.4237 -1.0573,-9.9205 c -0.5815,-5.4562 -1.5754,-10.9307 -2.2086,-12.1655 -0.6332,-1.2348 -1.615,-5.4417 -2.1818,-9.3487 -1.239,-8.5406 -3.397,-9.4597 -19.1162,-8.1419 -9.6824,0.8118 -10.7263,0.6067 -14.1035,-2.7705 -3.3817,-3.3817 -3.4922,-3.9482 -1.5176,-7.7827 1.8458,-3.5843 1.8422,-4.4021 -0.027,-6.136 -1.6193,-1.502 -1.739,-2.5038 -0.4805,-4.0203 1.2401,-1.4942 1.2196,-2.8728 -0.079,-5.2991 -1.3782,-2.5751 -1.335,-3.5391 0.2011,-4.4885 1.6032,-0.9908 1.5855,-1.9019 -0.098,-5.0481 -1.13,-2.1115 -2.6143,-3.8391 -3.2984,-3.8391 -2.8316,0 -0.951,-4.60719 2.8722,-7.03633 6.2374,-3.96311 9.5721,-8.22131 8.4863,-10.8368 -2.2537,-5.42922 -2.3338,-7.93956 -0.5845,-18.33068 1.5615,-9.27563 2.6105,-11.66825 6.8859,-15.70638 2.774,-2.62009 5.0437,-5.80199 5.0437,-7.07091 0,-1.26894 2.0205,-3.352 4.4901,-4.62907 2.4696,-1.27706 4.4901,-2.92465 4.4901,-3.6613 0,-0.73666 2.1889,-1.8074 4.8643,-2.37945 2.6754,-0.57206 5.5378,-1.57364 6.361,-2.2257 4.894,-3.87665 30.2827,-5.53461 44.5016,-2.90611 5.6948,1.05275 11.3824,1.0663 17.7407,0.0423 9.4143,-1.51614 18.9252,-0.34475 26.389,3.25012 4.6499,2.23962 10.8999,12.21295 10.8999,17.39336 0,2.38641 1.0103,5.1774 2.2451,6.20218 3.6911,3.06335 1.7854,21.19045 -2.9934,28.47343 -2.4312,3.70512 -9.3115,7.44408 -13.7919,7.4949 -6.7902,0.077 -11.7322,5.7676 -14.462,16.65244 -4.6017,18.3487 -9.4788,25.2081 -17.9233,25.2081 -7.0145,0 -8.4527,1.4118 -8.4527,8.2972 0,7.1699 4.7103,28.4799 7.2903,32.9817 5.2701,9.1962 18.1537,38.825 18.1537,41.7488 0,1.9037 -1.0653,3.87 -2.3674,4.3697 -1.3022,0.4997 -22.8759,0.9085 -47.9417,0.9085 -39.3138,0 -45.6936,-0.3112 -46.4436,-2.2657 z"
       id="path4576"
       inkscape:connector-curvature="0"
       inkscape:export-xdpi="42.18"
       inkscape:export-ydpi="42.18" />
    <path
       style="opacity:1;fill:#000000;fill-opacity:1;stroke:none;stroke-width:2.82842731;stroke-linecap:round;stroke-linejoin:miter;stroke-miterlimit:4;stroke-dasharray:none;stroke-dashoffset:0;stroke-opacity:1;paint-order:markers fill stroke"
       d="m -2308.8719,1111.1503 c -0.7567,-1.9719 1.0999,-6.4139 8.3373,-19.9479 2.901,-5.4251 2.4033,-13.627 -1.3235,-21.8077 -1.6922,-3.7147 -3.0767,-7.243 -3.0767,-7.8407 0,-0.5977 -1.05,-2.247 -2.3334,-3.6651 -2.1638,-2.391 -2.8978,-2.4095 -10.1028,-0.2544 -4.2731,1.2782 -11.4718,2.3854 -15.997,2.4605 l -8.2276,0.1365 -0.8455,-6.3029 c -0.5457,-4.0671 -2.195,-7.5534 -4.6497,-9.8284 -2.9715,-2.7539 -3.6511,-4.5683 -3.1048,-8.29 0.6337,-4.3179 0.3326,-4.7645 -3.2124,-4.7645 -4.6776,0 -4.7422,-0.7051 -1.0321,-11.261 2.6823,-7.6315 2.7153,-8.5221 0.4828,-12.9974 -3.5504,-7.11683 -4.2842,-26.01621 -1.2886,-33.18571 1.329,-3.1808 2.4164,-6.0185 2.4164,-6.306 0,-0.2876 -2.1406,-1.0775 -4.7569,-1.7555 l -4.757,-1.2326 3.5152,-3.2749 c 3.3048,-3.0789 3.3656,-3.4402 1.0152,-6.0374 -3.0439,-3.3634 -3.1693,-4.7718 -0.4249,-4.7718 1.3119,0 2.4465,-2.477 3.0851,-6.7352 0.8102,-5.4028 1.6027,-6.7352 4.0058,-6.7352 2.2477,0 2.8788,-0.841 2.5275,-3.3676 -0.3641,-2.6185 0.3641,-3.4812 3.2735,-3.8782 2.058,-0.2809 4.8231,-1.4758 6.1446,-2.6554 1.3282,-1.1855 3.5436,-1.7069 4.9536,-1.1658 1.7842,0.6846 2.7877,0.073 3.339,-2.0351 0.5212,-1.9931 1.6885,-2.7785 3.4463,-2.3188 1.7978,0.4701 2.9313,-0.3491 3.5019,-2.5309 0.7412,-2.8344 1.2516,-3.0078 4.2035,-1.4279 2.7713,1.4831 3.6672,1.3781 5.1134,-0.5997 1.5408,-2.1071 2.0997,-2.1359 4.6086,-0.2371 3.7455,2.8345 5.1003,2.7911 5.1003,-0.1636 0,-1.8955 0.8914,-2.1927 4.116,-1.3724 2.2637,0.5759 6.6416,0.9749 9.7286,0.8867 3.6223,-0.1036 5.6207,0.5158 5.6355,1.7466 0.013,1.0489 0.6596,2.914 1.4376,4.1448 1.2212,1.9317 1.6949,1.8546 3.4632,-0.5637 1.7182,-2.3497 2.5815,-2.5162 5.3541,-1.0323 1.8181,0.973 4.5862,1.3627 6.1514,0.8659 1.9444,-0.6171 3.3653,0.068 4.4863,2.1622 0.9365,1.75 3.1449,3.0653 5.1463,3.0653 1.9282,0 4.3443,1.0103 5.3691,2.2451 1.0248,1.2348 2.7648,2.245 3.8668,2.245 3.0413,0 7.6667,5.6568 8.6515,10.5807 0.4825,2.4125 1.8,4.3865 2.9278,4.3865 2.9455,0 7.0046,4.9491 7.0046,8.5406 0,1.6866 1.0037,3.8995 2.2306,4.9177 1.3895,1.1532 1.9004,3.1669 1.3548,5.3404 -0.5182,2.0646 0.099,4.8806 1.5112,6.897 3.3485,4.7807 2.9697,9.6255 -0.9807,12.5407 -2.2555,1.6644 -2.7497,2.7222 -1.4967,3.203 2.2649,0.8691 2.4826,5.90048 0.3133,7.24118 -0.8567,0.5295 -1.1226,2.3333 -0.5909,4.0085 0.8564,2.69823 0.2065,4.97663 -3.7182,13.03523 -0.5663,1.1628 -2.2287,2.2902 -3.6942,2.5053 -1.4655,0.2151 -3.4497,1.3718 -4.4095,2.5706 -0.9598,1.1987 -3.5681,2.6025 -5.7963,3.1196 -2.2281,0.5171 -6.5118,2.392 -9.5194,4.1665 -5.3495,3.1563 -5.4543,3.3943 -4.8267,10.9627 0.5638,6.7988 9.5288,28.1037 12.9081,30.6756 2.3107,1.7587 13.1506,16.0234 14.7949,19.4693 7.0207,14.7131 8.0513,21.9979 3.6727,25.9605 -2.3945,2.1669 -7.4587,2.477 -40.4581,2.477 -31.917,0 -37.8518,-0.3407 -38.5708,-2.2144 z"
       id="path4578"
       inkscape:connector-curvature="0"
       inkscape:export-xdpi="42.18"
       inkscape:export-ydpi="42.18" />
    <path
       style="opacity:1;fill:#000000;fill-opacity:1;stroke:none;stroke-width:2.82842731;stroke-linecap:round;stroke-linejoin:miter;stroke-miterlimit:4;stroke-dasharray:none;stroke-dashoffset:0;stroke-opacity:1;paint-order:markers fill stroke"
       d="m -1858.8335,1116.646 c -0.4818,-0.4818 1.4265,-4.8046 4.2406,-9.6063 2.8142,-4.8017 5.1167,-9.4589 5.1167,-10.3493 0,-0.8905 0.5259,-1.6191 1.1686,-1.6191 0.6427,0 1.9122,-1.9701 2.8211,-4.3781 2.9886,-7.9175 -2.203,-26.5824 -9.681,-34.8053 -3.0344,-3.3367 -4.2625,-3.7769 -7.3074,-2.6192 -2.013,0.7653 -9.2366,1.3915 -16.0526,1.3915 -10.4384,0 -12.8143,-0.466 -15.067,-2.9552 -2.3211,-2.5648 -2.4246,-3.5586 -0.783,-7.5218 1.6323,-3.9406 1.5367,-4.9586 -0.6975,-7.4274 -1.424,-1.5735 -2.1189,-3.6217 -1.5443,-4.5515 0.5747,-0.9299 -0.1923,-2.5953 -1.7044,-3.7009 -2.6136,-1.9112 -2.621,-2.152 -0.1498,-4.8826 3.4782,-3.8434 3.2991,-4.9596 -1.3963,-8.7036 l -3.9957,-3.186 4.8897,-4.3538 c 7.2186,-6.4274 8.1544,-8.90384 5.4288,-14.36735 -2.7677,-5.54813 -2.9685,-10.68711 -0.591,-15.12949 0.9549,-1.78421 1.8225,-8.54659 1.9281,-15.02748 l 0.1919,-11.78349 5.6333,-1.93664 c 3.0983,-1.06513 8.3271,-3.85614 11.6195,-6.20218 7.6509,-5.4519 8.0514,-5.65224 17.4717,-8.74088 6.4852,-2.12632 8.6724,-2.26883 12.2265,-0.79671 3.4049,1.41036 6.1903,1.37438 13.0558,-0.16875 4.8001,-1.07889 9.9857,-1.80533 11.5235,-1.61433 5.1603,0.64092 12.1986,4.78612 13.6881,8.06164 0.812,1.78543 3.908,4.07374 6.88,5.08511 7.4242,2.5264 18.0866,9.43837 17.0778,11.07072 -0.4554,0.73681 -0.1824,1.73866 0.6067,2.22631 0.789,0.48768 1.8868,3.90181 2.4394,7.58698 0.5526,3.68517 1.6553,6.70031 2.4504,6.70031 1.6677,0 0.1032,8.97747 -1.9432,11.15046 -0.7365,0.78206 -1.3391,2.52196 -1.3391,3.86652 0,1.87809 1.4742,2.4448 6.3611,2.44538 3.4985,0 8.8761,1.19465 11.95,2.65385 10.5909,5.02746 15.1229,18.96742 8.4833,26.09412 -2.798,3.0033 -2.8988,3.645 -0.9254,5.8949 1.218,1.3885 2.6763,4.0401 3.2407,5.8923 1.6298,5.3481 4.2168,3.9786 3.5339,-1.8709 -0.6804,-5.8284 0.9281,-7.1176 2.3341,-1.8709 1.6388,6.1154 0.9799,15.3714 -1.3291,18.6679 -1.2498,1.7844 -2.1531,3.7864 -2.0074,4.449 0.1458,0.6625 -0.1224,2.2149 -0.596,3.4497 -0.4735,1.2348 -1.2608,4.0734 -1.7496,6.3082 -0.6568,3.0032 -1.5324,3.816 -3.3567,3.116 -2.1681,-0.832 -2.3543,0.014 -1.5316,6.9594 0.6663,5.6264 0.2923,9.152 -1.2969,12.2253 -1.9891,3.8465 -1.9794,4.8096 0.089,8.8088 1.8683,3.6129 3.2869,4.4901 7.2611,4.4901 5.2718,0 10.5697,-4.3409 11.8731,-9.7286 0.4811,-1.9891 0.7824,-1.3999 0.8977,1.7561 0.1138,3.1106 -1.1634,6.3384 -3.7012,9.3544 -3.3761,4.0123 -4.8386,4.605 -11.3634,4.605 -5.2223,0 -8.6403,-0.9059 -11.2941,-2.9935 -4.3074,-3.3882 -7.924,-3.9069 -7.8263,-1.1225 0.036,1.029 1.0363,4.565 2.2226,7.8577 1.1862,3.2928 2.1669,7.5023 2.1793,9.3545 l 0.023,3.3676 h -45.4001 c -24.9701,0 -45.7944,-0.3942 -46.2762,-0.876 z m 63.0899,-60.4574 c -2.1606,-7.2108 -4.391,-11.9934 -5.5952,-11.9979 -3.7694,-0.014 1.7859,21.1152 6.3712,24.2327 2.9393,1.9984 2.7918,-0.3279 -0.776,-12.2348 z m 37.0733,-50.2961 c 1.1172,-2.9114 -3.3867,-7.59161 -8.4869,-8.81912 -2.8222,-0.67926 -4.2337,-0.10414 -5.7437,2.34032 -1.7123,2.7719 -1.6517,3.5912 0.4187,5.6616 2.2299,2.2299 2.4897,2.1573 3.2947,-0.9211 0.4807,-1.838 1.4983,-2.956 2.2614,-2.4844 0.7631,0.4716 0.9779,2.1478 0.4773,3.7249 -0.7374,2.3234 -0.172,2.8675 2.9795,2.8675 2.1677,0 4.2922,-1.0491 4.799,-2.3697 z"
       id="path4580"
       inkscape:connector-curvature="0"
       inkscape:export-xdpi="42.18"
       inkscape:export-ydpi="42.18" />
    <path
       style="opacity:1;fill:#000000;fill-opacity:1;stroke:none;stroke-width:2.82842731;stroke-linecap:round;stroke-linejoin:miter;stroke-miterlimit:4;stroke-dasharray:none;stroke-dashoffset:0;stroke-opacity:1;paint-order:markers fill stroke"
       d="m -1239.7926,1119.6631 c 2.1777,-3.5236 -1.1527,-8.6516 -10.6832,-16.4491 -15.4569,-12.6462 -22.6081,-20.6984 -25.1008,-28.2635 -2.2549,-6.8433 -2.2498,-6.871 1.9331,-10.603 2.3067,-2.058 6.4802,-5.7871 9.2745,-8.287 14.5062,-12.9779 21.8772,-25.4375 21.5184,-36.374 -0.1855,-5.6533 0.2873,-6.7094 3.6482,-8.1502 2.1236,-0.9103 4.8003,-1.6954 5.948,-1.7446 2.2632,-0.097 3.5291,-2.1062 5.704,-9.0543 0.7742,-2.4735 2.2899,-4.29121 3.3746,-4.04722 1.4714,0.33095 1.7671,-1.06423 1.1697,-5.51828 -0.4398,-3.27869 -0.4214,-6.33939 0.041,-6.80156 0.4621,-0.4622 1.0233,-2.55709 1.247,-4.65537 0.3377,-3.16749 -0.085,-3.65885 -2.4921,-2.89494 -1.9547,0.62039 -2.8989,0.21542 -2.8989,-1.2433 0,-1.18986 -1.5154,-3.19146 -3.3675,-4.44802 -2.9434,-1.99684 -3.1277,-2.68404 -1.4629,-5.45499 1.5951,-2.65486 1.5342,-3.31259 -0.3741,-4.0449 -1.2535,-0.48099 -2.279,-2.22155 -2.279,-3.86792 0,-2.04592 -0.7106,-2.72074 -2.2451,-2.13193 -1.6849,0.64656 -2.245,-0.24707 -2.245,-3.58164 0,-5.32884 -4.4229,-6.36111 -4.6083,-1.07556 -0.065,1.85219 -0.4579,2.52572 -0.8731,1.49672 -0.4152,-1.02899 -2.0458,-1.87089 -3.6236,-1.87089 -2.6802,0 -3.5094,-2.18178 -3.2708,-8.60608 0.038,-1.02899 -1.2027,-1.87089 -2.7576,-1.87089 -2.901,0 -8.814,-4.92218 -8.814,-7.33711 0,-1.07087 -7.6534,-4.63656 -9.9519,-4.63656 -0.2888,0 -0.525,1.40055 -0.525,3.11235 0,2.7269 -0.6024,2.98352 -4.8644,2.07224 -2.6753,-0.57208 -5.8179,-1.80424 -6.9834,-2.73817 -1.7619,-1.41179 -1.9463,-1.00417 -1.094,2.41789 0.7608,3.05494 0.4712,4.11594 -1.1237,4.11594 -1.1819,0 -2.4905,0.84191 -2.908,1.8709 -0.5902,1.45446 -1.0761,1.4188 -2.183,-0.16018 -1.4863,-2.12021 -7.7843,-1.10728 -7.7843,1.25201 0,0.69537 -2.7906,1.73577 -6.2013,2.31201 -3.8198,0.64534 -7.7612,2.64345 -10.2632,5.20297 -2.2341,2.28542 -5.5629,4.95856 -7.3973,5.94032 -1.8344,0.98177 -2.973,2.14739 -2.5301,2.5903 0.4429,0.44289 -0.1443,1.75485 -1.3049,2.91547 -1.1606,1.16059 -1.7332,3.09256 -1.2725,4.29321 0.4607,1.20065 0.1562,4.13811 -0.6769,6.52764 -1.0466,3.00233 -1.0209,4.8382 0.083,5.94214 1.792,1.79197 -0.9753,6.19522 -3.9218,6.24036 -2.6552,0.0407 -8.1336,6.53251 -9.243,10.95272 -0.5545,2.20924 -1.6071,4.38695 -2.3391,4.83933 -0.732,0.45241 -1.3309,5.44019 -1.3309,11.08399 v 10.2614 l -6.7352,5.9286 c -7.5275,6.626 -7.7471,7.1907 -4.2835,11.0179 1.9956,2.2051 2.1016,3.1307 0.5699,4.9763 -2.2375,2.696 -3.3741,14.2526 -1.4018,14.2526 0.7555,0 1.3737,3.3676 1.3737,7.4836 v 7.4836 h 12.8699 c 12.2438,0 13.0629,0.2085 16.8379,4.2879 4.021,4.3451 10.0085,18.0412 11.6157,26.5708 0.7963,4.2258 0.2649,5.0789 -5.6292,9.0375 -3.983,2.675 -6.5085,5.5105 -6.5085,7.3073 0,2.841 1.4164,2.9491 43.6765,3.3328 29.8606,0.2712 43.9902,-0.1109 44.668,-1.2076 z m 11.1866,-138.29462 c 0,-0.36301 0.6735,-1.07627 1.4967,-1.58504 0.8232,-0.50876 1.4967,-0.21174 1.4967,0.66003 0,0.87175 -0.6735,1.58504 -1.4967,1.58504 -0.8232,0 -1.4967,-0.29702 -1.4967,-0.66003 z m -71.842,-36.75771 c 0,-0.8232 0.297,-1.4967 0.66,-1.4967 0.363,0 1.0763,0.6735 1.585,1.4967 0.5088,0.82319 0.2118,1.49672 -0.66,1.49672 -0.8718,0 -1.585,-0.67353 -1.585,-1.49672 z"
       id="path4582"
       inkscape:connector-curvature="0"
       inkscape:export-xdpi="42.18"
       inkscape:export-ydpi="42.18" />
    <path
       style="opacity:1;fill:#000000;fill-opacity:1;stroke:none;stroke-width:2.82842731;stroke-linecap:round;stroke-linejoin:miter;stroke-miterlimit:4;stroke-dasharray:none;stroke-dashoffset:0;stroke-opacity:1;paint-order:markers fill stroke"
       d="m -706.12481,1113.859 c 9.6522,-1.2094 8.6986,-4.5475 -5.2716,-18.453 -14.4875,-14.4206 -19.5662,-21.4609 -22.9883,-31.8675 -2.0502,-6.2347 -2.1858,-8.3983 -0.7273,-11.5995 0.9862,-2.1644 2.4526,-3.9352 3.2587,-3.9352 0.8061,0 2.2318,-1.0478 3.1683,-2.3286 0.9365,-1.2807 2.825,-2.4933 4.1966,-2.6946 2.8865,-0.4237 13.7612,-11.4406 11.2929,-11.4406 -1.8689,0 -0.1298,-2.1456 1.9714,-2.4321 0.7546,-0.1029 1.9377,-0.2713 2.6291,-0.3742 0.6915,-0.1029 2.1463,-2.8812 3.233,-6.1739 1.0867,-3.2928 2.5416,-5.9869 3.233,-5.9869 0.6914,0 1.2571,-1.0103 1.2571,-2.245 0,-1.2348 0.5339,-2.2451 1.1863,-2.2451 2.0026,0 4.5817,-12.33647 4.0678,-19.45723 -0.7062,-9.785 -1.648,-13.97212 -4.4902,-19.96151 -1.3916,-2.93265 -2.1367,-5.96887 -1.6557,-6.74717 0.4811,-0.77833 -0.2016,-1.82814 -1.5171,-2.33294 -1.3155,-0.5048 -2.0258,-1.87155 -1.5784,-3.03728 0.4768,-1.24251 -0.8207,-3.19011 -3.1356,-4.70689 -2.1718,-1.42306 -5.5425,-4.1811 -7.4905,-6.12902 -1.9478,-1.94789 -5.0857,-4.55334 -6.9729,-5.78993 -3.2695,-2.1422 -20.8376,-5.85443 -35.2886,-7.45662 -3.7044,-0.41071 -9.2842,-1.13916 -12.3996,-1.61882 -3.689,-0.56793 -6.5143,-0.17069 -8.1011,1.13911 -1.9106,1.57689 -2.5727,1.60718 -3.0664,0.14031 -1.9047,-5.65907 -13.0644,4.97213 -14.6626,13.96804 -0.5728,3.22485 -2.923,7.88389 -5.2226,10.35346 -8.0947,8.69294 -10.9403,16.45238 -11.0643,30.17004 l -0.1133,12.53685 -7.1094,7.3509 c -7.3144,7.563 -8.7883,11.5054 -4.8643,13.0111 2.8631,1.0987 2.9125,4.8693 0.078,5.9569 -3.2237,1.2371 -2.2007,13.455 1.3436,16.0466 2.1564,1.5768 2.5311,3.1366 1.7517,7.2911 -1.4456,7.7057 2.6832,9.9228 19.5067,10.4749 l 13.2411,0.4346 3.3043,9.6527 c 3.2914,9.615 3.2927,9.6619 0.3282,11.9737 -9.2653,7.2255 -20.8447,20.6661 -20.8447,24.1951 0,4.1992 7.7373,4.9738 50.1398,5.0196 23.8725,0.026 46.0921,-0.2898 49.3769,-0.7014 z"
       id="path4584"
       inkscape:connector-curvature="0"
       inkscape:export-xdpi="42.18"
       inkscape:export-ydpi="42.18" />
    <path
       style="opacity:1;fill:#000000;fill-opacity:1;stroke:none;stroke-width:3.08272028;stroke-linecap:round;stroke-linejoin:miter;stroke-miterlimit:4;stroke-dasharray:none;stroke-dashoffset:0;stroke-opacity:1;paint-order:markers fill stroke"
       d="m -236.40849,940.45102 c 6.62126,-0.005 13.96937,0.94488 22.4622,2.73574 15.58431,3.28628 17.85792,4.22835 22.23172,9.20977 2.6796,3.05197 4.87204,6.27981 4.87204,7.1732 0,0.89339 2.68433,3.98132 5.96503,6.8616 3.28039,2.88041 8.05133,9.64795 10.60194,15.03939 4.28288,9.05309 4.63846,11.2798 4.63846,29.13108 0.002,21.42 -1.19703,25.5207 -10.70631,36.6303 -3.0828,3.6015 -5.60536,7.3488 -5.60536,8.3276 0,0.9789 -0.77055,1.7798 -1.71254,1.7798 -1.5358,0 -1.36824,4.351 0.64286,16.6998 0.25368,1.5584 2.03165,4.5047 3.95065,6.5474 5.48431,5.8379 8.5385,14.9608 8.5385,25.5069 0,0.7857 0.0249,1.6494 0.0677,2.557 h -97.30984 c 1.62878,-4.9657 3.7582,-9.0364 5.71799,-9.6584 2.60911,-0.8281 3.02713,-2.5253 2.83962,-11.5238 l -0.22014,-10.5528 -5.98413,-6e-4 c -11.0326,-5e-4 -15.75361,-4.4013 -12.8669,-11.9941 1.4809,-3.8952 0.41217,-9.4429 -3.52073,-18.2748 -0.82129,-1.8442 -1.35853,-4.0463 -1.19422,-4.8938 0.66489,-3.4267 -0.20233,-5.6193 -2.22261,-5.6193 -1.1743,0 -3.54632,-1.0317 -5.271,-2.2928 -3.03221,-2.2173 -2.94212,-2.5812 2.73111,-11.0113 8.82078,-13.1073 8.83181,-13.1373 4.44571,-12.5212 -2.95291,0.4147 -3.97039,-0.3134 -4.37028,-3.1295 -0.58891,-4.1461 -0.96422,-4.2999 -5.10252,-2.0851 -2.68142,1.4349 -3.04188,0.6222 -3.79669,-8.56439 -1.10389,-13.43482 2.67891,-21.47046 16.68841,-35.45363 14.39511,-14.36796 26.56837,-20.61232 43.48932,-20.62406 z"
       id="path4605"
       inkscape:connector-curvature="0"
       inkscape:export-xdpi="42.18"
       inkscape:export-ydpi="42.18" />
    <path
       style="opacity:1;fill:#000000;fill-opacity:1;stroke:none;stroke-width:3.08272028;stroke-linecap:round;stroke-linejoin:miter;stroke-miterlimit:4;stroke-dasharray:none;stroke-dashoffset:0;stroke-opacity:1;paint-order:markers fill stroke"
       d="m -481.44395,937.10312 c 2.0937,0.0229 4.10647,0.44509 6.87501,1.23042 4.04241,1.14681 10.1812,2.27976 13.64155,2.51767 12.8692,0.88524 27.98061,21.84969 30.76403,42.6801 2.13151,15.95144 -2.28097,31.60039 -11.83185,41.96179 -5.78728,6.2785 -12.583,18.7361 -15.34996,28.1394 -0.8183,2.781 -0.0822,4.0148 3.40754,5.7097 5.33355,2.5905 7.57288,9.2989 6.2606,18.7549 -0.86834,6.258 -0.57695,6.9802 3.62252,8.9834 3.67278,1.752 4.66965,3.4322 5.09116,8.5825 0.28826,3.5222 1.93956,8.204 3.67006,10.404 1.14237,1.4522 2.08182,3.6336 2.62827,5.9324 h -84.45841 c 0.006,-3.6061 -0.75026,-7.8253 -2.24587,-13.5971 -1.31805,-5.0866 -2.2357,-11.4317 -2.03914,-14.1009 0.35203,-4.7808 0.22418,-4.8609 -8.56538,-5.3589 -10.94875,-0.6202 -12.55358,-1.8654 -13.63067,-10.5735 -1.52551,-12.3326 -2.47082,-16.2988 -4.12793,-17.323 -0.89728,-0.5545 -1.50082,-2.4579 -1.34101,-4.2297 0.17595,-1.9506 -1.15703,-3.8636 -3.37963,-4.8493 -4.51321,-2.0015 -4.5825,-4.0894 -0.40772,-12.2726 1.79437,-3.5173 3.26234,-7.266 3.26234,-8.3303 0,-1.0644 -2.68828,-5.9861 -5.97432,-10.9368 -6.72722,-10.1349 -8.67326,-20.70387 -5.55263,-30.15936 4.62034,-13.99974 25.38952,-29.84984 41.4388,-31.62443 4.6327,-0.51226 10.62543,-2.2406 13.31701,-3.84059 2.69161,-1.59988 9.29426,-4.17885 14.6725,-5.73143 4.73583,-1.36715 7.56121,-1.99776 10.25313,-1.96837 z"
       id="path4609"
       inkscape:connector-curvature="0"
       inkscape:export-xdpi="42.18"
       inkscape:export-ydpi="42.18" />
    <path
       style="opacity:1;fill:#000000;fill-opacity:1;stroke:none;stroke-width:3.08272028;stroke-linecap:round;stroke-linejoin:miter;stroke-miterlimit:4;stroke-dasharray:none;stroke-dashoffset:0;stroke-opacity:1;paint-order:markers fill stroke"
       d="m -1028.5497,940.24214 c 22.4452,0.0281 38.21274,1.92225 45.06244,5.46426 8.1072,4.19256 9.1755,8.70823 9.0599,38.30103 -0.097,24.74787 -0.4964,28.35937 -4.6943,42.43617 -3.8168,12.7987 -4.4204,17.181 -3.5916,26.0573 1.0337,11.0687 3.0288,15.8009 16.0234,37.9998 3.6028,6.1548 6.5861,12.2707 8.956,18.359 h -89.34754 c 6.7586,-10.3106 6.5173,-11.0311 4.3548,-15.213 -1.3929,-2.6936 -2.1373,-5.9273 -1.6542,-7.1861 1.5426,-4.02 -2.9985,-5.7153 -16.9514,-6.3288 -16.058,-0.7062 -19.0708,-2.9853 -17.4822,-13.2256 0.6592,-4.2485 0.1341,-7.3893 -1.7048,-10.1957 -1.4615,-2.2307 -2.0593,-4.0556 -1.328,-4.0556 0.7312,0 0.4487,-0.8809 -0.6279,-1.9575 -1.0767,-1.0767 -1.9575,-3.9942 -1.9575,-6.4833 0,-3.3787 -1.2403,-5.1672 -4.8938,-7.0564 -6.2183,-3.2157 -6.3571,-8.082 -0.4077,-14.2901 3.7369,-3.8995 4.6609,-6.6384 5.533,-16.4021 1.0886,-12.18735 5.1204,-25.13291 9.9875,-32.06679 3.7135,-5.29039 3.5744,-8.65423 -0.5106,-12.35117 -5.4305,-4.9145 -3.7965,-13.61379 3.342,-17.79273 5.002,-2.92814 9.0673,-3.4123 32.8109,-3.90982 3.4725,-0.0728 6.8151,-0.10687 10.0216,-0.10285 z"
       id="path4611"
       inkscape:connector-curvature="0"
       inkscape:export-xdpi="42.18"
       inkscape:export-ydpi="42.18" />
    <path
       style="opacity:1;fill:#000000;fill-opacity:1;stroke:none;stroke-width:2.82842731;stroke-linecap:round;stroke-linejoin:miter;stroke-miterlimit:4;stroke-dasharray:none;stroke-dashoffset:0;stroke-opacity:1;paint-order:markers fill stroke"
       d="m -2587.6549,1118.6005 c -0.4818,-0.4818 1.4265,-4.8046 4.2406,-9.6063 2.8142,-4.8017 5.1167,-9.4589 5.1167,-10.3493 0,-0.8905 0.5259,-1.6191 1.1686,-1.6191 0.6427,0 1.9122,-1.9701 2.8211,-4.3781 2.9886,-7.9175 -2.203,-26.5824 -9.681,-34.8053 -3.0344,-3.3367 -4.2625,-3.7769 -7.3074,-2.6192 -2.013,0.7653 -9.2366,1.3915 -16.0526,1.3915 -10.4384,0 -12.8143,-0.466 -15.067,-2.9552 -2.3211,-2.5648 -2.4246,-3.5586 -0.783,-7.5218 1.6323,-3.9406 1.5367,-4.9586 -0.6975,-7.4274 -1.424,-1.5735 -2.1189,-3.6217 -1.5443,-4.5515 0.5747,-0.9299 -0.1923,-2.5953 -1.7044,-3.7009 -2.6136,-1.9112 -2.621,-2.152 -0.1498,-4.8826 3.4782,-3.8434 3.2991,-4.9596 -1.3963,-8.7036 l -3.9957,-3.186 4.8897,-4.3538 c 7.2186,-6.4274 8.1544,-8.9038 5.4288,-14.36731 -2.7677,-5.54813 -2.9685,-10.68711 -0.591,-15.12949 0.9549,-1.78421 1.8225,-8.54659 1.9281,-15.02748 l 0.1919,-11.78349 5.6333,-1.93664 c 3.0983,-1.06513 8.3271,-3.85614 11.6195,-6.20218 7.6509,-5.4519 8.0514,-5.65224 17.4717,-8.74088 6.4852,-2.12632 8.6724,-2.26883 12.2265,-0.79671 3.4049,1.41036 6.1903,1.37438 13.0558,-0.16875 4.8001,-1.07889 9.9857,-1.80533 11.5235,-1.61433 5.1603,0.64092 12.1986,4.78612 13.6881,8.06164 0.812,1.78543 3.908,4.07374 6.88,5.08511 7.4242,2.5264 18.0866,9.43837 17.0778,11.07072 -0.4554,0.73681 -0.1824,1.73866 0.6067,2.22631 0.789,0.48768 1.8868,3.90181 2.4394,7.58698 0.5526,3.68517 1.6553,6.70031 2.4504,6.70031 1.6677,0 0.1032,8.97747 -1.9432,11.15046 -0.7365,0.78206 -1.3391,2.52196 -1.3391,3.86652 0,1.87809 1.4742,2.4448 6.3611,2.44538 3.4985,0 8.8761,1.19465 11.95,2.65385 10.5909,5.02746 15.1229,18.96738 8.4833,26.09408 -2.798,3.0033 -2.8988,3.645 -0.9254,5.8949 1.218,1.3885 2.6763,4.0401 3.2407,5.8923 1.6298,5.3481 4.2168,3.9786 3.5339,-1.8709 -0.6804,-5.8284 0.9281,-7.1176 2.3341,-1.8709 1.6388,6.1154 0.9799,15.3714 -1.3291,18.6679 -1.2498,1.7844 -2.1531,3.7864 -2.0074,4.449 0.1458,0.6625 -0.1224,2.2149 -0.596,3.4497 -0.4735,1.2348 -1.2608,4.0734 -1.7496,6.3082 -0.6568,3.0032 -1.5324,3.816 -3.3567,3.116 -2.1681,-0.832 -2.3543,0.014 -1.5316,6.9594 0.6663,5.6264 0.2923,9.152 -1.2969,12.2253 -1.9891,3.8465 -1.9794,4.8096 0.089,8.8088 1.8683,3.6129 3.2869,4.4901 7.2611,4.4901 5.2718,0 10.5697,-4.3409 11.8731,-9.7286 0.4811,-1.9891 0.7824,-1.3999 0.8977,1.7561 0.1138,3.1106 -1.1634,6.3384 -3.7012,9.3544 -3.3761,4.0123 -4.8386,4.605 -11.3634,4.605 -5.2223,0 -8.6403,-0.9059 -11.2941,-2.9935 -4.3074,-3.3882 -7.924,-3.9069 -7.8263,-1.1225 0.036,1.029 1.0363,4.565 2.2226,7.8577 1.1862,3.2928 2.1669,7.5023 2.1793,9.3545 l 0.023,3.3676 h -45.4001 c -24.9701,0 -45.7944,-0.3942 -46.2762,-0.876 z m 63.0899,-60.4574 c -2.1606,-7.2108 -4.391,-11.9934 -5.5952,-11.9979 -3.7694,-0.014 1.7859,21.1152 6.3712,24.2327 2.9393,1.9984 2.7918,-0.3279 -0.776,-12.2348 z m 37.0733,-50.2961 c 1.1172,-2.9114 -3.3867,-7.5916 -8.4869,-8.81908 -2.8222,-0.67926 -4.2337,-0.10414 -5.7437,2.34028 -1.7123,2.7719 -1.6517,3.5912 0.4187,5.6616 2.2299,2.2299 2.4897,2.1573 3.2947,-0.9211 0.4807,-1.838 1.4983,-2.956 2.2614,-2.4844 0.7631,0.4716 0.9779,2.1478 0.4773,3.7249 -0.7374,2.3234 -0.172,2.8675 2.9795,2.8675 2.1677,0 4.2922,-1.0491 4.799,-2.3697 z"
       id="path4580-2"
       inkscape:connector-curvature="0"
       inkscape:export-xdpi="42.18"
       inkscape:export-ydpi="42.18" />
    <path
       style="opacity:1;fill:#000000;fill-opacity:1;stroke:none;stroke-width:1.779441;stroke-linecap:round;stroke-linejoin:miter;stroke-miterlimit:4;stroke-dasharray:none;stroke-dashoffset:0;stroke-opacity:1;paint-order:markers fill stroke"
       d="m -1891.7043,1474.8259 c -0.8331,-0.032 -1.101,0.3079 -1.101,1.1175 0,1.8358 -0.8613,1.8631 -3.2416,0.1025 -1.5941,-1.1797 -1.9489,-1.1617 -2.9279,0.147 -0.919,1.2286 -1.4883,1.2937 -3.2492,0.3724 -1.8759,-0.9816 -2.2008,-0.8736 -2.6717,0.8869 -0.3626,1.3554 -1.0826,1.8645 -2.2249,1.5725 -1.117,-0.2854 -1.859,0.2026 -2.1902,1.4407 -0.3502,1.3094 -0.9875,1.6892 -2.1212,1.2639 -0.8961,-0.3362 -2.3045,-0.012 -3.1484,0.7241 -0.8399,0.7328 -2.5965,1.4749 -3.9041,1.6492 -1.8488,0.2467 -2.3121,0.7826 -2.0807,2.4091 0.2233,1.5696 -0.1776,2.0924 -1.606,2.0924 -1.5271,0 -2.0308,0.8277 -2.5457,4.1839 -0.4056,2.6449 -1.1262,4.1834 -1.96,4.1834 -1.7439,0 -1.6645,0.8751 0.2696,2.9645 1.4937,1.6134 1.4551,1.8378 -0.6451,3.7504 l -2.2337,2.0336 3.0231,0.7664 c 1.6625,0.4211 3.0231,0.9117 3.0231,1.0903 0,0.1786 -0.6913,1.9412 -1.5359,3.9169 -1.9035,4.4536 -1.4369,16.1939 0.8191,20.6146 1.4186,2.78 1.3971,3.3334 -0.3075,8.0741 -2.3574,6.5571 -2.316,6.9951 0.6564,6.9951 2.2527,0 2.4435,0.2776 2.0408,2.9599 -0.3471,2.3117 0.085,3.4384 1.9733,5.1492 1.5598,1.4131 2.6079,3.5786 2.9546,6.1052 l 0.5372,3.9154 5.2286,-0.085 c 2.8756,-0.046 7.4499,-0.7342 10.1652,-1.5283 4.5784,-1.3387 5.0451,-1.3276 6.4201,0.1578 0.8155,0.8809 1.4827,1.9055 1.4827,2.2769 0,0.3712 0.8796,2.5624 1.9549,4.8699 2.3682,5.0816 2.6847,10.177 0.841,13.5471 -1.6191,2.9599 -2.8067,5.2083 -3.6549,6.9475 -0.016,0.3001 0.1205,0.5611 0.5111,0.8024 0.7922,0.489 2.6244,0.8958 8.5408,1.018 5.9164,0.1222 15.9181,-0.04 23.0848,-0.1219 7.1668,-0.081 11.5001,-0.081 14.0002,-0.2444 2.5001,-0.163 3.1666,-0.4892 3.3332,-1.6293 0.1645,-1.1263 -0.1601,-3.0485 -0.6902,-4.9012 -0.6356,-1.687 -1.4751,-3.5939 -2.5371,-5.7696 -1.0448,-2.1407 -7.9335,-11.0012 -9.4018,-12.0935 -2.1475,-1.5977 -7.8439,-14.8322 -8.2021,-19.0555 -0.3989,-4.7016 -0.3324,-4.8496 3.0671,-6.8102 1.9111,-1.1023 4.6329,-2.2667 6.0487,-2.5879 1.416,-0.3212 3.0736,-1.1937 3.6836,-1.9382 0.6101,-0.7447 1.8709,-1.4632 2.8021,-1.5971 0.9314,-0.1335 1.9877,-0.8339 2.3473,-1.5559 2.4941,-5.0061 2.9072,-6.4211 2.3631,-8.0973 -0.3379,-1.0406 -0.1691,-2.161 0.3755,-2.49 1.3783,-0.8327 1.2403,-3.958 -0.199,-4.4979 -0.7962,-0.2987 -0.4827,-0.9557 0.9505,-1.9895 2.5105,-1.8109 2.7511,-4.8207 0.6232,-7.7903 -0.8979,-1.2525 -1.2898,-3.002 -0.9603,-4.2843 0.3467,-1.3501 0.023,-2.6012 -0.8605,-3.3176 -0.7797,-0.6325 -1.4177,-2.0069 -1.4177,-3.0546 0,-2.231 -2.5797,-5.3054 -4.4515,-5.3054 -0.7166,0 -1.5535,-1.2261 -1.8602,-2.7247 -0.6258,-3.0587 -3.5652,-6.5725 -5.4978,-6.5725 -0.7004,0 -1.8054,-0.6276 -2.4567,-1.3945 -0.6513,-0.7672 -2.1868,-1.3952 -3.4119,-1.3952 -1.272,0 -2.6755,-0.8168 -3.2708,-1.9039 -0.7123,-1.3006 -1.6149,-1.7262 -2.8506,-1.3429 -0.9946,0.3087 -2.7533,0.066 -3.9087,-0.5379 -1.7618,-0.9219 -2.3103,-0.8182 -3.4022,0.6414 -1.1237,1.5022 -1.425,1.5498 -2.201,0.3499 -0.4945,-0.7645 -0.9033,-1.9235 -0.9137,-2.575 -0.01,-0.7646 -1.279,-1.1502 -3.5808,-1.0847 -1.9616,0.054 -4.7432,-0.193 -6.1817,-0.5508 -0.6405,-0.1592 -1.1361,-0.2503 -1.5149,-0.2649 z m -116.7968,0.6517 c -0.085,0 -0.1603,0.01 -0.2297,0.015 h -0.087 c -0.2371,-0.01 -0.6015,0.063 -1.1716,0.2111 -0.7837,0.202 -2.0869,0.3436 -2.8952,0.3156 -1.8063,-0.062 -4.8719,0.334 -8.6462,1.1185 -1.0957,0.2274 -1.7475,0.3797 -2.0567,0.498 -0.085,0.025 -0.1699,0.051 -0.2701,0.082 -0.5132,0.1605 -1.2404,0.4008 -1.8249,0.6609 -0.5848,0.2599 -1.028,0.5394 -1.4704,0.7992 -0.1309,0.076 -0.2603,0.152 -0.3862,0.226 -0.1956,-0.01 -0.937,0.4769 -1.8209,1.2051 -1.2533,1.0328 -2.1075,2.1205 -2.5483,3.2437 -0.4758,1.2123 -0.9928,1.8354 -1.831,2.2077 -0.6426,0.2855 -2.4372,1.551 -3.988,2.8123 -4.9095,3.993 -8.0643,10.0669 -8.7869,16.9195 l -0.3571,3.3974 0.046,0.017 c -0.01,0.1453 -0.01,0.2729 0,0.4098 0.022,0.2608 0.073,0.5579 0.1648,0.9433 0.092,0.3854 0.2244,0.8584 0.3862,1.3788 0.049,0.1602 0.1022,0.3254 0.1643,0.4898 0.1071,0.344 0.2454,0.7619 0.4185,1.2762 0.4098,1.2175 1.1808,2.6705 1.7133,3.2283 0.5327,0.5577 0.9572,1.3428 0.9435,1.7436 -0.014,0.4011 0.4768,1.7534 1.0902,3.0049 1.2871,2.6274 2.7662,7.1553 3.3398,10.2236 0.2186,1.1692 0.4758,2.504 0.5704,2.966 0.087,0.4221 0.4278,0.2212 0.9061,-0.3951 0.4325,0.8818 1.0854,2.1054 1.6075,3.7792 0.568,1.8209 0.9782,4.1699 1.0426,5.8439 0.065,1.674 -0.2148,2.6734 -0.4144,3.3871 -0.1272,0.4527 -0.2194,0.79 -0.1299,1.1103 -0.019,0.1002 -0.034,0.2033 -0.049,0.3126 -0.122,0.9861 -0.062,2.3486 -0.2333,4.2299 -0.1695,1.8816 -0.5692,4.2801 -1.5671,7.2314 -0.998,2.9509 -2.5948,6.4535 -4.4331,9.2981 -1.8379,2.8446 -3.917,5.0312 -5.7397,7.4277 -1.8229,2.3967 -3.3896,5.0024 -4.6117,7.822 -0.01,0.013 -0.011,0.026 -0.017,0.039 -0.398,1.1138 -0.7694,2.1912 -1.0278,2.9523 -0.5248,1.5457 -0.5862,1.7926 -0.3699,2.1641 0.2164,0.3715 0.7095,0.8655 1.5123,1.2056 0.2423,0.1026 0.5163,0.1905 0.8155,0.27 4.2882,0.2117 9.5901,0.3991 18.0491,0.6912 4.2317,0.146 9.2426,0.3175 14.321,0.461 7.3184,0.01 14.71,-0.012 19.634,-0.061 9.1067,-0.092 9.6622,-0.2781 10.0634,-0.68 0.4011,-0.4018 0.6483,-1.0205 0.397,-1.7025 -0.2513,-0.6822 -1.0015,-1.4292 -1.5947,-2.0321 -0.06,-0.061 -0.1152,-0.1186 -0.1729,-0.1777 -0.2565,-0.2465 -0.515,-0.4971 -0.7659,-0.7337 -3.7797,-3.5644 -6.862,-5.9604 -8.6774,-7.3533 -1.8152,-1.393 -2.3642,-1.7832 -2.2567,-2.8625 0.1075,-1.0793 0.8714,-2.847 1.2278,-3.7468 0.3566,-0.8999 0.3035,-0.9329 -0.619,-1.739 -0.7059,-0.6168 -1.9182,-1.6824 -3.1577,-2.7144 0.1531,-0.2867 0.3141,-0.7156 0.5694,-1.3629 0.4083,-1.0355 1.0595,-2.6329 1.6756,-3.9241 0.5266,-1.1033 1.028,-1.9837 1.6325,-2.8011 0.2862,0.3209 0.4183,0.4185 0.4738,0.2875 0.1455,0.1472 0.3583,0.3137 0.5945,0.4728 0.2192,0.4661 1.1029,0.9495 3.6759,2.3011 2.1578,1.1335 4.6882,2.5251 5.6236,3.0926 3.8697,2.3478 8.8342,3.68 11.1577,2.9936 1.0097,-0.298 3.2465,-2.2012 4.1435,-3.525 0.6059,-0.8943 0.5635,-1.2129 -0.6784,-5.1066 -2.5142,-7.8832 -2.9628,-9.829 -2.6854,-11.657 0.1879,-1.2374 0.4832,-1.8203 1.0324,-2.0397 0.4603,-0.1842 0.7819,-0.6692 0.8007,-1.2113 0.024,-0.7026 0.3753,-1.0435 1.5721,-1.5268 1.5118,-0.6102 1.5407,-0.657 1.5604,-2.5089 0.013,-1.2759 -0.2468,-2.2892 -0.8042,-3.126 -0.4534,-0.6806 -0.8224,-1.3045 -0.8196,-1.3848 0,-0.082 0.9043,-0.1166 2.0034,-0.078 2.6622,0.092 3.7193,-0.243 5.0752,-1.6083 l 1.1337,-1.142 -0.8047,-1.7984 c -0.4432,-0.989 -1.5194,-3.5496 -2.3908,-5.6901 -0.8712,-2.1402 -1.886,-4.591 -2.2557,-5.4463 l -0.6707,-1.5551 1.2023,-1.3419 0.04,0.026 c 0.6539,-0.7603 1.3089,-1.5208 1.9631,-2.281 l 0.054,-0.062 v -0.077 c 0.015,-0.4513 0.031,-0.9032 0.046,-1.3542 v -0.03 l -0.014,-0.029 c -0.1523,-0.6377 -0.3049,-1.2754 -0.4574,-1.9132 l -0.015,-0.026 -0.014,-0.027 c -0.3089,-0.6017 -0.6181,-1.2034 -0.927,-1.8051 -0.1302,-0.4095 -0.4442,-1.1267 -0.99,-2.3957 -0.6264,-1.4552 -1.2266,-3.288 -1.3338,-4.0716 -0.1767,-1.2855 -0.1127,-1.4216 0.6498,-1.3952 0.4645,0.016 2.6481,-0.4409 4.8526,-1.0154 4.3789,-1.1417 5.5944,-1.0942 6.2774,0.2463 0.5656,1.1096 -0.2221,3.6522 -1.6786,5.4218 -1.3453,1.6331 -1.3404,1.7591 0.051,1.222 3.5622,-1.376 6.9368,-4.9189 8.0762,-8.4806 1.298,-4.0568 -1.809,-7.8031 -7.1241,-8.589 -1.6139,-0.2387 -1.7835,-0.3577 -2.0797,-1.4772 -0.215,-0.8138 -0.7433,-1.4562 -1.5916,-1.9346 -0.6984,-0.3943 -1.4792,-1.1551 -1.7344,-1.6902 -0.5154,-1.0802 -2.4616,-2.2964 -3.7531,-2.341 -0.4609,-0.016 -1.807,-0.6766 -2.9909,-1.4669 -2.5117,-1.6768 -4.5491,-2.6531 -9.276,-4.4477 -4.4156,-1.676 -8.303,-2.5009 -13.354,-2.8317 -2.2253,-0.1464 -4.9244,-0.3914 -5.9986,-0.5457 -0.6573,-0.094 -1.2176,-0.1292 -1.6428,-0.1092 h -0.075 c -0.7227,-0.048 -1.4526,-0.074 -2.0766,-0.1158 -0.6237,-0.043 -1.1423,-0.1064 -1.5134,-0.1193 h -0.133 l 0.028,-0.017 h -0.1529 -0.1361 z m 25.0407,7.6628 v 0 c 0.1731,-8e-4 0.3396,6e-4 0.4988,0 0.084,0 0.1676,0.01 0.2486,0.01 0.4333,0.025 0.8173,0.06 1.168,0.1169 1.8702,0.3094 1.7484,0.3386 -3.1382,0.7593 -2.7956,0.2406 -5.3586,0.4891 -5.6952,0.5528 -1.2358,0.2315 -4.2713,0.05 -3.6411,-0.2163 0.3396,-0.1441 2.8464,-0.5212 5.5724,-0.8392 2.1997,-0.2567 3.774,-0.3811 4.9867,-0.3868 z m 6.0682,4.7029 c 0.1819,0.01 0.2807,0.034 0.2793,0.075 0,0.1331 -0.7611,0.4003 -1.6816,0.5938 -2.669,0.5611 -1.569,0.7318 1.7952,0.2788 2.9232,-0.3938 6.7254,-0.478 6.2841,-0.1394 -0.1133,0.086 -1.1075,0.2781 -2.2107,0.4257 -1.103,0.1477 -4.0254,0.6417 -6.4943,1.0985 -4.9603,0.9177 -9.0428,0.9697 -13.5137,0.1706 -3.2243,-0.5761 -2.6262,-0.8852 1.9876,-1.0263 1.8974,-0.058 4.5511,-0.3006 5.8973,-0.5394 3.2471,-0.5758 6.6716,-0.9836 7.6568,-0.9366 z m 11.832,5.2444 v 5e-4 c 0.1724,0.01 0.2826,0.022 0.3187,0.054 0.1223,0.1081 -0.034,0.2439 -0.3459,0.3027 -0.3128,0.058 -2.7446,0.5923 -5.4036,1.1872 -6.5087,1.4556 -10.7401,1.8596 -12.0013,1.1451 -0.3408,-0.1929 0.3686,-0.3528 1.9804,-0.4468 1.3814,-0.08 4.1019,-0.4687 6.0447,-0.8623 3.9092,-0.7918 8.201,-1.4091 9.407,-1.3803 z m 4.5533,6.5192 h 10e-4 l 5e-4,6e-4 c 0.1228,0 0.2223,0.018 0.2916,0.032 1.6846,0.4088 2.6121,1.4654 2.5264,2.8748 l -0.076,1.2481 -0.5259,-1.0769 c -0.2896,-0.5924 -0.9289,-1.3274 -1.4202,-1.6334 -1.1814,-0.7364 -3.0919,-0.7622 -6.8106,-0.094 -3.6009,0.6475 -3.2653,0.6165 -3.2543,0.2952 0.015,-0.4346 7.4184,-1.7092 9.2678,-1.6456 z"
       id="path10711"
       inkscape:connector-curvature="0" />
    <path
       style="opacity:1;fill:#000000;fill-opacity:1;stroke:none;stroke-width:0.70131457;stroke-linecap:round;stroke-linejoin:miter;stroke-miterlimit:4;stroke-dasharray:none;stroke-dashoffset:0;stroke-opacity:1;paint-order:markers fill stroke"
       d="m -1609.0464,1173.9028 c -0.222,-0.01 -0.385,0 -0.5253,0.014 h -0.088 c -0.2396,-0.01 -0.6079,0.063 -1.1841,0.2115 -0.7921,0.2038 -2.1094,0.3477 -2.9263,0.3195 -1.8257,-0.063 -4.9238,0.3371 -8.7385,1.1282 -1.1073,0.2295 -1.7664,0.3831 -2.0789,0.5023 -0.086,0.025 -0.1715,0.051 -0.2728,0.083 -0.5187,0.162 -1.2538,0.4042 -1.8446,0.6666 -0.591,0.2623 -1.0388,0.5445 -1.4859,0.8066 -0.1323,0.077 -0.2632,0.1529 -0.3905,0.2275 -0.1976,-0.01 -0.9473,0.4814 -1.8407,1.2158 -1.2667,1.0415 -2.13,2.1379 -2.5755,3.2707 -0.4809,1.2226 -1.0031,1.8515 -1.8503,2.2269 -0.6494,0.2879 -2.4637,1.5637 -4.0311,2.8358 -4.9619,4.0271 -8.1498,10.1532 -8.8801,17.064 l -0.3616,3.4266 0.047,0.017 c -0.01,0.1466 -0.01,0.2753 0,0.4134 0.022,0.263 0.074,0.5627 0.1673,0.9514 0.093,0.3888 0.2265,0.8658 0.3901,1.3904 0.049,0.1617 0.1028,0.3282 0.1655,0.4939 0.1083,0.347 0.2487,0.7684 0.4236,1.2871 0.4143,1.228 1.1934,2.6936 1.7317,3.2562 0.5383,0.5625 0.9673,1.354 0.9534,1.7583 -0.014,0.4044 0.4815,1.768 1.1014,3.0302 1.301,2.6497 2.7963,7.2168 3.3759,10.3114 0.221,1.1791 0.4807,2.5249 0.5764,2.9909 0.088,0.4258 0.4326,0.223 0.916,-0.3986 0.4371,0.8892 1.097,2.1233 1.6247,3.8115 0.5741,1.8365 0.9883,4.2055 1.0534,5.8936 0.066,1.6883 -0.2169,2.6961 -0.4186,3.4159 -0.1286,0.4565 -0.2216,0.7972 -0.1311,1.1201 -0.019,0.101 -0.034,0.205 -0.049,0.3152 -0.1233,0.9946 -0.063,2.3687 -0.2359,4.266 -0.1713,1.8976 -0.5751,4.3168 -1.5837,7.2931 -1.0087,2.9761 -2.6225,6.5083 -4.4804,9.3773 -1.8576,2.8689 -3.9588,5.074 -5.801,7.491 -1.8424,2.4171 -3.4256,5.0451 -4.6607,7.8887 -0.8814,2.0292 -1.5848,4.1716 -2.2575,6.5278 0.5455,0.024 1.1052,0.056 1.6821,0.087 4.5802,0.246 10.2216,0.4406 19.7406,0.7685 9.5191,0.328 22.9172,0.7894 32.3605,0.7618 6.332,-0.019 10.8799,-0.259 15.1415,-0.5864 -1.7532,-1.8252 -3.5271,-3.5954 -5.1719,-5.1431 -3.8202,-3.5948 -6.9352,-6.0113 -8.77,-7.4161 -1.8347,-1.4048 -2.3898,-1.7984 -2.2812,-2.8868 0.1086,-1.0885 0.8807,-2.8713 1.2409,-3.7789 0.3604,-0.9076 0.3072,-0.9407 -0.6252,-1.7537 -0.7134,-0.622 -1.939,-1.6969 -3.1917,-2.7377 0.1547,-0.2893 0.3173,-0.7212 0.5753,-1.3742 0.4127,-1.0443 1.0711,-2.6556 1.6938,-3.9578 0.5322,-1.1127 1.0391,-2.0006 1.6501,-2.8248 0.2893,0.3235 0.4225,0.4217 0.4786,0.2896 0.1471,0.1486 0.3623,0.3164 0.601,0.4767 0.2216,0.4701 1.1142,0.9578 3.7148,2.3209 2.1809,1.1432 4.7389,2.5465 5.6843,3.1188 3.9111,2.368 8.9288,3.7116 11.2772,3.0194 1.0205,-0.3006 3.2811,-2.2197 4.1877,-3.5548 0.6124,-0.902 0.5695,-1.2234 -0.6856,-5.1504 -2.5411,-7.9503 -2.9943,-9.913 -2.7139,-11.7566 0.1899,-1.2479 0.4879,-1.8352 1.0429,-2.0566 0.4653,-0.1857 0.7906,-0.6753 0.8095,-1.2219 0.024,-0.7087 0.3796,-1.0526 1.5892,-1.5399 1.528,-0.6155 1.557,-0.6628 1.5769,-2.5305 0.013,-1.2868 -0.2495,-2.3082 -0.8128,-3.1521 -0.4583,-0.6865 -0.8311,-1.3158 -0.8283,-1.3968 0,-0.083 0.914,-0.1174 2.0249,-0.079 2.6907,0.093 3.759,-0.2453 5.1294,-1.6222 l 1.1457,-1.1518 -0.8134,-1.8135 c -0.4479,-0.9975 -1.5354,-3.5798 -2.4161,-5.7385 -0.8806,-2.1585 -1.9062,-4.6306 -2.2798,-5.4933 l -0.6781,-1.5678 1.2152,-1.3537 0.041,0.026 c 0.6609,-0.7668 1.3224,-1.5337 1.9836,-2.3004 l 0.054,-0.063 v -0.078 c 0.015,-0.455 0.031,-0.9101 0.047,-1.365 v -0.03 l -0.014,-0.029 c -0.154,-0.6431 -0.3079,-1.2865 -0.462,-1.9296 l -0.015,-0.026 -0.014,-0.027 c -0.3122,-0.6068 -0.6246,-1.2135 -0.9368,-1.8203 -0.1316,-0.413 -0.4488,-1.1363 -1.0005,-2.4161 -0.6331,-1.4678 -1.2398,-3.3159 -1.3482,-4.106 -0.1786,-1.2966 -0.1141,-1.4336 0.6565,-1.407 0.4695,0.016 2.6766,-0.445 4.9046,-1.0245 4.4258,-1.1514 5.6543,-1.1033 6.3446,0.2486 0.5716,1.1189 -0.2246,3.6833 -1.6966,5.468 -1.3597,1.647 -1.3543,1.7741 0.051,1.2324 3.6003,-1.3877 7.0108,-4.961 8.1624,-8.553 1.3118,-4.0914 -1.8282,-7.8692 -7.2002,-8.6618 -1.6312,-0.2407 -1.8024,-0.3618 -2.1017,-1.4907 -0.2174,-0.8207 -0.7518,-1.4685 -1.6091,-1.951 -0.706,-0.3975 -1.4948,-1.1645 -1.7526,-1.7042 -0.521,-1.0895 -2.4882,-2.3159 -3.7936,-2.3608 -0.4657,-0.016 -1.8259,-0.6826 -3.0225,-1.4796 -2.5385,-1.6911 -4.5981,-2.6756 -9.3756,-4.4854 -4.4627,-1.6903 -8.3919,-2.522 -13.4969,-2.8559 -2.2491,-0.1475 -4.977,-0.395 -6.0628,-0.5507 -0.6643,-0.095 -1.2305,-0.1302 -1.6602,-0.1099 h -0.076 c -0.7304,-0.049 -1.4682,-0.075 -2.0989,-0.1173 -0.6303,-0.043 -1.1545,-0.107 -1.5295,-0.1199 h -0.1343 z m 25.5192,7.7382 c 0.085,0 0.17,0.01 0.252,0.01 0.4379,0.025 0.8255,0.06 1.18,0.1177 1.8902,0.3121 1.7671,0.342 -3.1717,0.7661 -2.8256,0.2428 -5.4159,0.4933 -5.7561,0.5577 -1.2491,0.2334 -4.3173,0.051 -3.6803,-0.2184 0.3432,-0.1453 2.8776,-0.5255 5.6327,-0.8463 2.5408,-0.2958 4.2559,-0.4179 5.5434,-0.3855 z m 5.6293,4.7297 c 0.1839,0.01 0.2837,0.034 0.2823,0.075 0,0.1342 -0.7692,0.4035 -1.6996,0.5987 -2.6975,0.5659 -1.5857,0.7386 1.8145,0.2817 2.9545,-0.3971 6.7975,-0.4824 6.3514,-0.141 -0.1146,0.087 -1.1195,0.2803 -2.2345,0.4292 -1.1148,0.149 -4.0684,0.6478 -6.5637,1.1084 -5.0134,0.9254 -9.1399,0.9774 -13.6586,0.1717 -3.2588,-0.5811 -2.6539,-0.8925 2.0093,-1.0348 1.9177,-0.059 4.5998,-0.3036 5.9604,-0.5444 3.2819,-0.5807 6.7428,-0.9916 7.7385,-0.9443 z m 11.9585,5.2895 v 5e-4 c 0.1743,0.01 0.2859,0.022 0.3224,0.054 0.1236,0.109 -0.034,0.2457 -0.3497,0.305 -0.3162,0.059 -2.7737,0.5975 -5.4612,1.1975 -6.5783,1.468 -10.8553,1.8755 -12.13,1.1551 -0.3444,-0.1944 0.3729,-0.3558 2.0021,-0.4507 1.3961,-0.081 4.1451,-0.4728 6.1087,-0.8697 3.9511,-0.7985 8.2889,-1.4207 9.5077,-1.3917 z m 4.604,6.5755 h 10e-4 c 0.1242,0 0.2241,0.018 0.2942,0.032 1.7025,0.4124 2.6407,1.4778 2.5542,2.8993 l -0.077,1.259 -0.5319,-1.0861 c -0.2927,-0.5973 -0.9389,-1.3389 -1.4355,-1.6477 -1.194,-0.7426 -3.1251,-0.7689 -6.8836,-0.095 -3.6394,0.6529 -3.3001,0.6218 -3.289,0.2978 0.015,-0.4383 7.4979,-1.7238 9.3671,-1.6597 z"
       id="path10763"
       inkscape:connector-curvature="0" />
  </g>
</svg>
