<?xml version="1.0" encoding="UTF-8"?>
<!-- Created with Inkscape (http://www.inkscape.org/) -->
<svg width="211.67mm" height="118.53mm" version="1.1" viewBox="0 0 211.67 118.53" xmlns="http://www.w3.org/2000/svg" xmlns:cc="http://creativecommons.org/ns#" xmlns:dc="http://purl.org/dc/elements/1.1/" xmlns:rdf="http://www.w3.org/1999/02/22-rdf-syntax-ns#">
 <metadata>
  <rdf:RDF>
   <cc:Work rdf:about="">
    <dc:format>image/svg+xml</dc:format>
    <dc:type rdf:resource="http://purl.org/dc/dcmitype/StillImage"/>
    <dc:title/>
   </cc:Work>
  </rdf:RDF>
 </metadata>
 <g transform="translate(2053.2 -1474.8)">
  <path d="m-1891.7 1474.8c-0.8331-0.032-1.101 0.3079-1.101 1.1175 0 1.8358-0.8613 1.8631-3.2416 0.1025-1.5941-1.1797-1.9489-1.1617-2.9279 0.147-0.919 1.2286-1.4883 1.2937-3.2492 0.3724-1.8759-0.9816-2.2008-0.8736-2.6717 0.8869-0.3626 1.3554-1.0826 1.8645-2.2249 1.5725-1.117-0.2854-1.859 0.2026-2.1902 1.4407-0.3502 1.3094-0.9875 1.6892-2.1212 1.2639-0.8961-0.3362-2.3045-0.012-3.1484 0.7241-0.8399 0.7328-2.5965 1.4749-3.9041 1.6492-1.8488 0.2467-2.3121 0.7826-2.0807 2.4091 0.2233 1.5696-0.1776 2.0924-1.606 2.0924-1.5271 0-2.0308 0.8277-2.5457 4.1839-0.4056 2.6449-1.1262 4.1834-1.96 4.1834-1.7439 0-1.6645 0.8751 0.2696 2.9645 1.4937 1.6134 1.4551 1.8378-0.6451 3.7504l-2.2337 2.0336 3.0231 0.7664c1.6625 0.4211 3.0231 0.9117 3.0231 1.0903s-0.6913 1.9412-1.5359 3.9169c-1.9035 4.4536-1.4369 16.194 0.8191 20.615 1.4186 2.78 1.3971 3.3334-0.3075 8.0741-2.3574 6.5571-2.316 6.9951 0.6564 6.9951 2.2527 0 2.4435 0.2776 2.0408 2.9599-0.3471 2.3117 0.085 3.4384 1.9733 5.1492 1.5598 1.4131 2.6079 3.5786 2.9546 6.1052l0.5372 3.9154 5.2286-0.085c2.8756-0.046 7.4499-0.7342 10.165-1.5283 4.5784-1.3387 5.0451-1.3276 6.4201 0.1578 0.8155 0.8809 1.4827 1.9055 1.4827 2.2769 0 0.3712 0.8796 2.5624 1.9549 4.8699 2.3682 5.0816 2.6847 10.177 0.841 13.547-1.6191 2.9599-2.8067 5.2083-3.6549 6.9475-0.016 0.3001 0.1205 0.5611 0.5111 0.8024 0.7922 0.489 2.6244 0.8958 8.5408 1.018s15.918-0.04 23.085-0.1219c7.1668-0.081 11.5-0.081 14-0.2444 2.5001-0.163 3.1666-0.4892 3.3332-1.6293 0.1645-1.1263-0.1601-3.0485-0.6902-4.9012-0.6356-1.687-1.4751-3.5939-2.5371-5.7696-1.0448-2.1407-7.9335-11.001-9.4018-12.094-2.1475-1.5977-7.8439-14.832-8.2021-19.056-0.3989-4.7016-0.3324-4.8496 3.0671-6.8102 1.9111-1.1023 4.6329-2.2667 6.0487-2.5879 1.416-0.3212 3.0736-1.1937 3.6836-1.9382 0.6101-0.7447 1.8709-1.4632 2.8021-1.5971 0.9314-0.1335 1.9877-0.8339 2.3473-1.5559 2.4941-5.0061 2.9072-6.4211 2.3631-8.0973-0.3379-1.0406-0.1691-2.161 0.3755-2.49 1.3783-0.8327 1.2403-3.958-0.199-4.4979-0.7962-0.2987-0.4827-0.9557 0.9505-1.9895 2.5105-1.8109 2.7511-4.8207 0.6232-7.7903-0.8979-1.2525-1.2898-3.002-0.9603-4.2843 0.3467-1.3501 0.023-2.6012-0.8605-3.3176-0.7797-0.6325-1.4177-2.0069-1.4177-3.0546 0-2.231-2.5797-5.3054-4.4515-5.3054-0.7166 0-1.5535-1.2261-1.8602-2.7247-0.6258-3.0587-3.5652-6.5725-5.4978-6.5725-0.7004 0-1.8054-0.6276-2.4567-1.3945-0.6513-0.7672-2.1868-1.3952-3.4119-1.3952-1.272 0-2.6755-0.8168-3.2708-1.9039-0.7123-1.3006-1.6149-1.7262-2.8506-1.3429-0.9946 0.3087-2.7533 0.066-3.9087-0.5379-1.7618-0.9219-2.3103-0.8182-3.4022 0.6414-1.1237 1.5022-1.425 1.5498-2.201 0.3499-0.4945-0.7645-0.9033-1.9235-0.9137-2.575-0.01-0.7646-1.279-1.1502-3.5808-1.0847-1.9616 0.054-4.7432-0.193-6.1817-0.5508-0.6405-0.1592-1.1361-0.2503-1.5149-0.2649zm-116.8 0.6517c-0.085 0-0.1603 0.01-0.2297 0.015h-0.087c-0.2371-0.01-0.6015 0.063-1.1716 0.2111-0.7837 0.202-2.0869 0.3436-2.8952 0.3156-1.8063-0.062-4.8719 0.334-8.6462 1.1185-1.0957 0.2274-1.7475 0.3797-2.0567 0.498-0.085 0.025-0.1699 0.051-0.2701 0.082-0.5132 0.1605-1.2404 0.4008-1.8249 0.6609-0.5848 0.2599-1.028 0.5394-1.4704 0.7992-0.1309 0.076-0.2603 0.152-0.3862 0.226-0.1956-0.01-0.937 0.4769-1.8209 1.2051-1.2533 1.0328-2.1075 2.1205-2.5483 3.2437-0.4758 1.2123-0.9928 1.8354-1.831 2.2077-0.6426 0.2855-2.4372 1.551-3.988 2.8123-4.9095 3.993-8.0643 10.067-8.7869 16.92l-0.3571 3.3974 0.046 0.017c-0.01 0.1453-0.01 0.2729 0 0.4098 0.022 0.2608 0.073 0.5579 0.1648 0.9433 0.092 0.3854 0.2244 0.8584 0.3862 1.3788 0.049 0.1602 0.1022 0.3254 0.1643 0.4898 0.1071 0.344 0.2454 0.7619 0.4185 1.2762 0.4098 1.2175 1.1808 2.6705 1.7133 3.2283 0.5327 0.5577 0.9572 1.3428 0.9435 1.7436-0.014 0.4011 0.4768 1.7534 1.0902 3.0049 1.2871 2.6274 2.7662 7.1553 3.3398 10.224 0.2186 1.1692 0.4758 2.504 0.5704 2.966 0.087 0.4221 0.4278 0.2212 0.9061-0.3951 0.4325 0.8818 1.0854 2.1054 1.6075 3.7792 0.568 1.8209 0.9782 4.1699 1.0426 5.8439 0.065 1.674-0.2148 2.6734-0.4144 3.3871-0.1272 0.4527-0.2194 0.79-0.1299 1.1103-0.019 0.1002-0.034 0.2033-0.049 0.3126-0.122 0.9861-0.062 2.3486-0.2333 4.2299-0.1695 1.8816-0.5692 4.2801-1.5671 7.2314-0.998 2.9509-2.5948 6.4535-4.4331 9.2981-1.8379 2.8446-3.917 5.0312-5.7397 7.4277-1.8229 2.3967-3.3896 5.0024-4.6117 7.822-0.01 0.013-0.011 0.026-0.017 0.039-0.398 1.1138-0.7694 2.1912-1.0278 2.9523-0.5248 1.5457-0.5862 1.7926-0.3699 2.1641 0.2164 0.3715 0.7095 0.8655 1.5123 1.2056 0.2423 0.1026 0.5163 0.1905 0.8155 0.27 4.2882 0.2117 9.5901 0.3991 18.049 0.6912 4.2317 0.146 9.2426 0.3175 14.321 0.461 7.3184 0.01 14.71-0.012 19.634-0.061 9.1067-0.092 9.6622-0.2781 10.063-0.68 0.4011-0.4018 0.6483-1.0205 0.397-1.7025-0.2513-0.6822-1.0015-1.4292-1.5947-2.0321-0.06-0.061-0.1152-0.1186-0.1729-0.1777-0.2565-0.2465-0.515-0.4971-0.7659-0.7337-3.7797-3.5644-6.862-5.9604-8.6774-7.3533-1.8152-1.393-2.3642-1.7832-2.2567-2.8625s0.8714-2.847 1.2278-3.7468c0.3566-0.8999 0.3035-0.9329-0.619-1.739-0.7059-0.6168-1.9182-1.6824-3.1577-2.7144 0.1531-0.2867 0.3141-0.7156 0.5694-1.3629 0.4083-1.0355 1.0595-2.6329 1.6756-3.9241 0.5266-1.1033 1.028-1.9837 1.6325-2.8011 0.2862 0.3209 0.4183 0.4185 0.4738 0.2875 0.1455 0.1472 0.3583 0.3137 0.5945 0.4728 0.2192 0.4661 1.1029 0.9495 3.6759 2.3011 2.1578 1.1335 4.6882 2.5251 5.6236 3.0926 3.8697 2.3478 8.8342 3.68 11.158 2.9936 1.0097-0.298 3.2465-2.2012 4.1435-3.525 0.6059-0.8943 0.5635-1.2129-0.6784-5.1066-2.5142-7.8832-2.9628-9.829-2.6854-11.657 0.1879-1.2374 0.4832-1.8203 1.0324-2.0397 0.4603-0.1842 0.7819-0.6692 0.8007-1.2113 0.024-0.7026 0.3753-1.0435 1.5721-1.5268 1.5118-0.6102 1.5407-0.657 1.5604-2.5089 0.013-1.2759-0.2468-2.2892-0.8042-3.126-0.4534-0.6806-0.8224-1.3045-0.8196-1.3848 0-0.082 0.9043-0.1166 2.0034-0.078 2.6622 0.092 3.7193-0.243 5.0752-1.6083l1.1337-1.142-0.8047-1.7984c-0.4432-0.989-1.5194-3.5496-2.3908-5.6901-0.8712-2.1402-1.886-4.591-2.2557-5.4463l-0.6707-1.5551 1.2023-1.3419 0.04 0.026c0.6539-0.7603 1.3089-1.5208 1.9631-2.281l0.054-0.062v-0.077c0.015-0.4513 0.031-0.9032 0.046-1.3542v-0.03l-0.014-0.029c-0.1523-0.6377-0.3049-1.2754-0.4574-1.9132l-0.015-0.026-0.014-0.027c-0.3089-0.6017-0.6181-1.2034-0.927-1.8051-0.1302-0.4095-0.4442-1.1267-0.99-2.3957-0.6264-1.4552-1.2266-3.288-1.3338-4.0716-0.1767-1.2855-0.1127-1.4216 0.6498-1.3952 0.4645 0.016 2.6481-0.4409 4.8526-1.0154 4.3789-1.1417 5.5944-1.0942 6.2774 0.2463 0.5656 1.1096-0.2221 3.6522-1.6786 5.4218-1.3453 1.6331-1.3404 1.7591 0.051 1.222 3.5622-1.376 6.9368-4.9189 8.0762-8.4806 1.298-4.0568-1.809-7.8031-7.1241-8.589-1.6139-0.2387-1.7835-0.3577-2.0797-1.4772-0.215-0.8138-0.7433-1.4562-1.5916-1.9346-0.6984-0.3943-1.4792-1.1551-1.7344-1.6902-0.5154-1.0802-2.4616-2.2964-3.7531-2.341-0.4609-0.016-1.807-0.6766-2.9909-1.4669-2.5117-1.6768-4.5491-2.6531-9.276-4.4477-4.4156-1.676-8.303-2.5009-13.354-2.8317-2.2253-0.1464-4.9244-0.3914-5.9986-0.5457-0.6573-0.094-1.2176-0.1292-1.6428-0.1092h-0.075c-0.7227-0.048-1.4526-0.074-2.0766-0.1158-0.6237-0.043-1.1423-0.1064-1.5134-0.1193h-0.133l0.028-0.017h-0.289zm25.041 7.6628c0.1731-8e-4 0.3396 6e-4 0.4988 0 0.084 0 0.1676 0.01 0.2486 0.01 0.4333 0.025 0.8173 0.06 1.168 0.1169 1.8702 0.3094 1.7484 0.3386-3.1382 0.7593-2.7956 0.2406-5.3586 0.4891-5.6952 0.5528-1.2358 0.2315-4.2713 0.05-3.6411-0.2163 0.3396-0.1441 2.8464-0.5212 5.5724-0.8392 2.1997-0.2567 3.774-0.3811 4.9867-0.3868zm6.0682 4.7029c0.1819 0.01 0.2807 0.034 0.2793 0.075 0 0.1331-0.7611 0.4003-1.6816 0.5938-2.669 0.5611-1.569 0.7318 1.7952 0.2788 2.9232-0.3938 6.7254-0.478 6.2841-0.1394-0.1133 0.086-1.1075 0.2781-2.2107 0.4257-1.103 0.1477-4.0254 0.6417-6.4943 1.0985-4.9603 0.9177-9.0428 0.9697-13.514 0.1706-3.2243-0.5761-2.6262-0.8852 1.9876-1.0263 1.8974-0.058 4.5511-0.3006 5.8973-0.5394 3.2471-0.5758 6.6716-0.9836 7.6568-0.9366zm11.832 5.2444v5e-4c0.1724 0.01 0.2826 0.022 0.3187 0.054 0.1223 0.1081-0.034 0.2439-0.3459 0.3027-0.3128 0.058-2.7446 0.5923-5.4036 1.1872-6.5087 1.4556-10.74 1.8596-12.001 1.1451-0.3408-0.1929 0.3686-0.3528 1.9804-0.4468 1.3814-0.08 4.1019-0.4687 6.0447-0.8623 3.9092-0.7918 8.201-1.4091 9.407-1.3803zm4.5533 6.5192h1e-3l5e-4 6e-4c0.1228 0 0.2223 0.018 0.2916 0.032 1.6846 0.4088 2.6121 1.4654 2.5264 2.8748l-0.076 1.2481-0.5259-1.0769c-0.2896-0.5924-0.9289-1.3274-1.4202-1.6334-1.1814-0.7364-3.0919-0.7622-6.8106-0.094-3.6009 0.6475-3.2653 0.6165-3.2543 0.2952 0.015-0.4346 7.4184-1.7092 9.2678-1.6456z" style="paint-order:markers fill stroke"/>
 </g>
</svg>
